<svg width="24" height="24" viewBox="0 0 24 24" fill="none" xmlns="http://www.w3.org/2000/svg">
<path d="M11.8561 6.55512L10.8131 5.51209C9.84496 4.54392 8.53181 4 7.16261 4C5.79341 4 4.48027 4.54392 3.51209 5.51209C2.54392 6.48027 2 7.79342 2 9.16261C2 10.5318 2.54392 11.845 3.51209 12.8131L8.7045 18.0055C8.71199 18.0131 8.71951 18.0207 8.72707 18.0282L11.3346 20.6358C11.4786 20.7798 11.6674 20.8518 11.8561 20.8518" stroke="black" stroke-width="0.8" stroke-linecap="round" stroke-linejoin="round"/>
<path d="M11.8562 6.55505L12.8991 5.51209C13.8673 4.54392 15.1804 4 16.5496 4C17.9188 4 19.232 4.54392 20.2002 5.51209C21.1683 6.48027 21.7123 7.79341 21.7123 9.16261C21.7123 10.5318 21.1683 11.845 20.2002 12.8131L12.3776 20.6357C12.2336 20.7797 12.0449 20.8517 11.8562 20.8517" stroke="black" stroke-width="0.8" stroke-linecap="round" stroke-linejoin="round"/>
</svg>
