<svg id="Layer_1" data-name="Layer 1" xmlns="http://www.w3.org/2000/svg" viewBox="0 0 792.24 165.75"><defs><style>.cls-1{fill:#071c2c;}</style></defs><path class="cls-1" d="M212.34,109.57,228,103.78a.69.69,0,0,1,.92.48c2.65,9.85,10.17,19.09,24.85,19.09,13.41,0,19.43-5.75,19.43-13.55,0-6.7-4.79-11.22-16.42-13.27l-12.18-2.06c-17-2.87-28.06-10.81-28.06-27.91,0-15.47,13-28.33,36-28.33,22.57,0,34.06,12.13,37.84,23.71a.72.72,0,0,1-.43.89l-15.26,5.8a.69.69,0,0,1-.9-.43C271,60.62,265,53,252,53c-12.18,0-17.24,5.88-17.24,12.72,0,6.57,4.65,10.27,13.55,11.91l12.45,2.19c18.2,3,31.07,12.18,31.07,28.6s-12.32,29.7-38.32,29.7c-24.16,0-37.27-12.51-41.57-27.68A.73.73,0,0,1,212.34,109.57Zm104.75,25.8V41a.71.71,0,0,1,.71-.71h40.48c20.4,0,33.53,11.9,33.53,30.11s-13.13,30.52-33.53,30.52H335.59a.71.71,0,0,0-.71.71v33.75a.71.71,0,0,1-.71.71H317.8A.71.71,0,0,1,317.09,135.37Zm17.79-50.23a.71.71,0,0,0,.71.71H355c11.36,0,18.2-6,18.2-15.46,0-9-6.71-14.78-18.2-14.78H335.59a.71.71,0,0,0-.71.71Zm79.92,50.23V41a.71.71,0,0,1,.71-.71h68.92a.71.71,0,0,1,.71.71v13.9a.71.71,0,0,1-.71.72H433.3a.71.71,0,0,0-.71.71V78.43a.71.71,0,0,0,.71.72h38a.71.71,0,0,1,.72.71V93.49a.71.71,0,0,1-.72.71h-38a.71.71,0,0,0-.71.71V120a.71.71,0,0,0,.71.71h51.13a.71.71,0,0,1,.71.71v13.91a.71.71,0,0,1-.71.71H415.51A.71.71,0,0,1,414.8,135.37Zm96.21,0V41a.71.71,0,0,1,.71-.71h43.9c20.26,0,31.89,10.67,31.89,25.59,0,14.66-9.58,22.44-20.36,25.49a.69.69,0,0,0,.06,1.35c10,2.15,15.6,8.1,17.7,20l4.22,22.56a.71.71,0,0,1-.7.84H570.74a.71.71,0,0,1-.7-.61l-3.2-21.29c-1.78-11.49-7.39-15.87-19.7-15.87H529.51a.7.7,0,0,0-.71.71v36.35a.71.71,0,0,1-.72.71H511.72A.71.71,0,0,1,511,135.37ZM528.8,82.68a.71.71,0,0,0,.71.71h23c9.45,0,16.56-4.38,16.56-14s-7.11-13.82-16.56-13.82h-23a.71.71,0,0,0-.71.71Zm86.35,52.69V41a.71.71,0,0,1,.71-.71h43.9c20.26,0,31.89,10.67,31.89,25.59,0,14.66-9.58,22.44-20.35,25.49a.69.69,0,0,0,.06,1.35c10,2.15,15.59,8.1,17.69,20l4.22,22.56a.7.7,0,0,1-.7.84H674.89a.71.71,0,0,1-.71-.61L671,114.18c-1.78-11.49-7.39-15.87-19.71-15.87H633.65a.71.71,0,0,0-.71.71v36.35a.71.71,0,0,1-.71.71H615.86A.71.71,0,0,1,615.15,135.37Zm17.79-52.69a.71.71,0,0,0,.71.71h23c9.44,0,16.56-4.38,16.56-14s-7.12-13.82-16.56-13.82h-23a.71.71,0,0,0-.71.71Zm108.11,52.69V96.87a.7.7,0,0,0-.1-.38L707,41.36a.71.71,0,0,1,.61-1.08h19.12a.71.71,0,0,1,.61.35l13.34,22.5,9.09,15.35a.71.71,0,0,0,1.23,0c1.64-3,4.48-8.12,8.71-15.48l12.52-22.36a.72.72,0,0,1,.62-.36h18.72a.71.71,0,0,1,.6,1.08L759,96.22a.69.69,0,0,0-.1.37v38.78a.71.71,0,0,1-.72.71H741.77A.71.71,0,0,1,741.05,135.37ZM82.87,0A82.91,82.91,0,0,0,8.08,118.61,137.67,137.67,0,0,0,21.46,114,161.73,161.73,0,0,0,58.27,93.71C69.77,85.2,79.47,72.83,87,60.9a235.44,235.44,0,0,0,17.68-34.85,3.82,3.82,0,0,1,5.39-1.88l1.2.67a5.7,5.7,0,0,1,2.79,3.64c.62,2.49,1.58,6.65,2.51,11.61,2.44,13,4.83,33,.78,48.59A45.57,45.57,0,0,1,93.32,118.4a1,1,0,0,0,.42,1.8h31.79a4.31,4.31,0,0,1,4.31,4.31,6.6,6.6,0,0,1-6.61,6.6H53.75a4.3,4.3,0,0,1-4.24-5.05l.08-.48a7.64,7.64,0,0,1,6.17-6.21,145.42,145.42,0,0,0,20.48-5.24,62.81,62.81,0,0,0,16.42-7.88A35.13,35.13,0,0,0,106.82,86a62.6,62.6,0,0,0,1.78-13.47,130.49,130.49,0,0,0-1.53-23.14.91.91,0,0,0-1.72-.26c-1.27,2.61-3.38,7.16-5.89,11.61-2.84,5-6.07,10.2-8.92,14.29-7,10-15.55,19.93-25.77,27.5a170.42,170.42,0,0,1-39.42,21.8c-4.32,1.68-8.27,3-11.79,4A82.87,82.87,0,1,0,82.87,0Z" transform="translate(0 0)"/></svg>