<svg width="24" height="24" viewBox="0 0 24 24" fill="none" xmlns="http://www.w3.org/2000/svg">
<path d="M18.6667 21.4719H5.33333C4.59697 21.4719 4 20.875 4 20.1386V19.6931C4 17.7556 5.20203 16.0214 7.01633 15.3414C10.2296 14.1371 13.7704 14.1371 16.9837 15.3414C18.798 16.0214 20 17.7556 20 19.6931V20.1386C20 20.875 19.403 21.4719 18.6667 21.4719Z" stroke="black" stroke-width="0.8" stroke-linecap="round" stroke-linejoin="round"/>
<path d="M9.967 11.0943C11.243 11.7497 12.7567 11.7497 14.0327 11.0943C15.2202 10.4843 16.071 9.37323 16.3504 8.06777L16.4249 7.71933C16.7106 6.38433 16.4055 4.99103 15.588 3.8976L15.4683 3.7375C14.6507 2.64393 13.3653 2 11.9999 2C10.6345 2 9.349 2.64393 8.53143 3.7375L8.41173 3.8976C7.59423 4.99103 7.28913 6.38433 7.57476 7.71933L7.64933 8.06777C7.92866 9.37323 8.7795 10.4843 9.967 11.0943Z" stroke="black" stroke-width="0.8" stroke-linecap="round" stroke-linejoin="round"/>
</svg>
