<svg id="레이어_1" data-name="레이어 1" xmlns="http://www.w3.org/2000/svg" viewBox="0 0 349.32 349.32"><defs><style>.cls-1{font-size:49px;fill:#0b1c2b;font-family:NanumMyeongjoExtraBold, NanumMyeongjo;}</style></defs><text class="cls-1" transform="matrix(0.86, -0.52, 0.52, 0.86, 90.94, 69.79)">A</text><text class="cls-1" transform="matrix(0.93, -0.36, 0.36, 0.93, 120.57, 52.9)"> </text><text class="cls-1" transform="matrix(0.97, -0.23, 0.23, 0.97, 133.18, 47.74)">c</text><text class="cls-1" transform="translate(153.87 42.56) rotate(-2.99)">o</text><text class="cls-1" transform="translate(179.54 40.15) rotate(10.85)">m</text><text class="cls-1" transform="matrix(0.92, 0.38, -0.38, 0.92, 218.24, 48.71)">f</text><text class="cls-1" transform="translate(232.17 53.91) rotate(31.42)">o</text><text class="cls-1" transform="translate(254.38 67.77) rotate(40.8)">r</text><text class="cls-1" transform="translate(267.9 79.48) rotate(47.85)">t</text><text class="cls-1" transform="matrix(0.56, 0.83, -0.83, 0.56, 278.21, 90.28)">a</text><text class="cls-1" transform="translate(291.38 109.38) rotate(66.66)">b</text><text class="cls-1" transform="translate(301.4 133.68) rotate(74.96)">l</text><text class="cls-1" transform="translate(304.89 145.38) rotate(82.08)">e</text><text class="cls-1" transform="translate(307.53 165.84) rotate(89.07)"> </text><text class="cls-1" transform="matrix(-0.11, 0.99, -0.99, -0.11, 307.9, 179.65)">s</text><text class="cls-1" transform="matrix(-0.27, 0.96, -0.96, -0.27, 306.48, 197.2)">h</text><text class="cls-1" transform="translate(299.65 222.26) rotate(116.8)">o</text><text class="cls-1" transform="translate(287.77 245.5) rotate(126.78)">e</text><text class="cls-1" transform="matrix(-0.7, 0.72, -0.72, -0.7, 275.25, 261.98)"> </text><text class="cls-1" transform="translate(265.58 271.95) rotate(139.75)">i</text><text class="cls-1" transform="matrix(-0.83, 0.56, -0.56, -0.83, 256.34, 280.06)">s</text><text class="cls-1" transform="translate(241.42 289.95) rotate(153.04)"> </text><text class="cls-1" transform="matrix(-0.95, 0.31, -0.31, -0.95, 229.63, 296.59)">d</text><text class="cls-1" transform="translate(204.84 304.68) rotate(171.68)">e</text><text class="cls-1" transform="matrix(-1, 0.02, -0.02, -1, 184.36, 307.52)">f</text><text class="cls-1" transform="translate(169.11 307.71) rotate(-174.83)">i</text><text class="cls-1" transform="translate(157.05 307.22) rotate(-166.58)">n</text><text class="cls-1" transform="translate(131.56 300.69) rotate(-158.26)">i</text><text class="cls-1" transform="translate(120.05 296.23) rotate(-152.3)">t</text><text class="cls-1" transform="translate(106.65 289.5) rotate(-144.64)">e</text><text class="cls-1" transform="matrix(-0.74, -0.67, 0.67, -0.74, 89.85, 277.33)">l</text><text class="cls-1" transform="matrix(-0.64, -0.77, 0.77, -0.64, 80.58, 269.47)">y</text><text class="cls-1" transform="matrix(-0.53, -0.85, 0.85, -0.53, 65.69, 251.28)"> </text><text class="cls-1" transform="translate(58.14 240.01) rotate(-114.02)">a</text><text class="cls-1" transform="matrix(-0.28, -0.96, 0.96, -0.28, 48.82, 218.45)"> </text><text class="cls-1" transform="matrix(-0.14, -0.99, 0.99, -0.14, 44.66, 205.53)">S</text><text class="cls-1" transform="translate(41.18 182.36) rotate(-87.44)">p</text><text class="cls-1" transform="matrix(0.22, -0.98, 0.98, 0.22, 42.47, 156.28)">e</text><text class="cls-1" transform="translate(46.96 136.19) rotate(-69.16)">r</text><text class="cls-1" transform="translate(53.22 119.52) rotate(-61.47)">r</text><text class="cls-1" transform="translate(61.39 103.84) rotate(-52.65)">y</text><text class="cls-1" transform="translate(75.91 85.32) rotate(-44.98)">.</text></svg>