<svg id="Layer_1" data-name="Layer 1" xmlns="http://www.w3.org/2000/svg" viewBox="0 0 165.73 165.75"><defs><style>.cls-1{fill:#071c2c;}</style></defs><path class="cls-1" d="M82.87,0A82.91,82.91,0,0,0,8.08,118.61,137.16,137.16,0,0,0,21.46,114,161.55,161.55,0,0,0,58.27,93.71C69.77,85.2,79.47,72.83,87,60.9a235.57,235.57,0,0,0,17.68-34.85,3.81,3.81,0,0,1,5-2.07,2.93,2.93,0,0,1,.4.19l1.2.67a5.7,5.7,0,0,1,2.79,3.64c.62,2.49,1.58,6.65,2.51,11.61,2.44,13,4.83,33,.78,48.59a45.58,45.58,0,0,1-24,29.72,1,1,0,0,0,.42,1.8h31.79a4.31,4.31,0,0,1,4.31,4.31,6.59,6.59,0,0,1-6.6,6.6H53.75a4.31,4.31,0,0,1-4.31-4.29,4.77,4.77,0,0,1,.07-.76l.08-.48a7.64,7.64,0,0,1,6.17-6.21,146.08,146.08,0,0,0,20.48-5.24,62.6,62.6,0,0,0,16.42-7.88A35.1,35.1,0,0,0,106.82,86a62.43,62.43,0,0,0,1.78-13.47,129.89,129.89,0,0,0-1.53-23.14.91.91,0,0,0-1-.77.93.93,0,0,0-.69.51c-1.27,2.61-3.38,7.16-5.89,11.61-2.84,5-6.07,10.2-8.92,14.29C83.54,85,75,95,64.77,102.53a170.35,170.35,0,0,1-39.42,21.8c-4.32,1.68-8.27,3-11.79,4A82.87,82.87,0,1,0,82.87,0Z" transform="translate(0 0)"/></svg>