<svg width="24" height="24" viewBox="0 0 24 24" fill="none" xmlns="http://www.w3.org/2000/svg">
<path d="M19.9442 7.73827C19.9569 7.90232 19.9569 8.06641 19.9569 8.23047C19.9569 13.2344 15.8326 19 8.29444 19C5.97209 19 3.81473 18.3789 2 17.3008C2.32996 17.3359 2.64719 17.3477 2.98985 17.3477C4.90607 17.3477 6.67006 16.75 8.0787 15.7305C6.27666 15.6953 4.7665 14.6055 4.24618 13.1055C4.50001 13.1406 4.7538 13.164 5.02032 13.164C5.38833 13.164 5.75638 13.1172 6.099 13.0352C4.22083 12.6836 2.81215 11.1601 2.81215 9.32031V9.27345C3.35782 9.5547 3.99239 9.73048 4.66493 9.75389C3.56087 9.07419 2.83754 7.91405 2.83754 6.60154C2.83754 5.89842 3.04055 5.25389 3.3959 4.69139C5.41369 6.98826 8.44671 8.48824 11.8477 8.65233C11.7843 8.37108 11.7462 8.07814 11.7462 7.78516C11.7462 5.6992 13.5736 4 15.8452 4C17.0254 4 18.0914 4.45703 18.8401 5.19531C19.7665 5.03126 20.6548 4.71484 21.4416 4.28125C21.137 5.16018 20.4898 5.89846 19.6396 6.36718C20.4645 6.28519 21.264 6.0742 22 5.78126C21.4417 6.53123 20.7437 7.19917 19.9442 7.73827V7.73827Z" fill="white"/>
</svg>
