<svg width="24" height="24" viewBox="0 0 24 24" fill="none" xmlns="http://www.w3.org/2000/svg">
<path d="M21.5821 6.34699C21.3521 5.42316 20.6744 4.69559 19.8139 4.44867C18.2542 4 12 4 12 4C12 4 5.74586 4 4.18613 4.44867C3.32565 4.69562 2.64794 5.42316 2.41792 6.34699C2 8.02148 2 11.5152 2 11.5152C2 11.5152 2 15.0088 2.41792 16.6833C2.64794 17.6071 3.32565 18.3044 4.18613 18.5513C5.74586 19 12 19 12 19C12 19 18.2541 19 19.8139 18.5513C20.6744 18.3044 21.3521 17.6071 21.5821 16.6833C22 15.0088 22 11.5152 22 11.5152C22 11.5152 22 8.02148 21.5821 6.34699ZM9.95453 14.6871V8.34316L15.1818 11.5152L9.95453 14.6871Z" fill="white"/>
</svg>
